# Aspose.3D Wavefront OBJ Exporter
# Copyright 2004-2025 Aspose Pty Ltd.
# File created: 08/28/2025 13:13:44

g Part_

#
# object Part_
#

v 7.303167 -84.02183 1.083313
v 15.140629 -80.10121 -1.410176
v 61.028175 -79.6647 -0.243252
v 123.75794 -39.18789 -0.118112
v 125.94609 -20.669724 -2.042684
v 125.00357 -8.810592 -0.485874
v 112.62558 33.587135 -0.047502
v 82.23244 65.85183 -0.835442
v 71.562706 73.07712 -0.234649
v 52.588543 83.540054 1.73467
v 48.73419 -77.40412 4.909798
v 79.1376 -80.4897 -10.893545
v 95.09534 -76.45005 2.15768
v 120.605934 -50.259724 9.408525
v 122.885666 8.291418 6.217062
v 102.05101 -71.95733 8.996449
v 111.47709 -64.82512 7.913761
v 127.650665 -24.74447 16.45076
v 126.99635 -7.856981 19.168718
v 110.93576 40.52414 18.707888
v 49.826435 85.21633 10.491955
v 43.927597 -76.93378 9.951352
v 68.15425 -80.029816 16.412523
v 125.509125 11.038257 23.238129
v 116.84524 31.239012 21.530752
v 100.55065 49.21218 20.118431
v 94.08142 55.5568 11.148083
v 63.524338 75.96854 7.943096
v 53.945206 81.221146 16.899649
v 42.070686 88.78129 5.573151
v 30.66536 90.75098 2.430921
v 8.415423 95.83183 0.71922
v 6.595306 -84.23664 3.345391
v 17.092798 -82.27929 4.15093
v 27.956417 -80.37456 3.441413
v 37.372246 -79.04993 12.933256
v 67.78213 -77.12918 24.691332
v 96.660355 -72.31363 24.035885
v 107.05119 -63.899025 30.122568
v 116.2046 -46.618103 45.237995
v 125.41539 -23.269136 46.26604
v 126.201035 -10.579277 43.941597
v 124.04143 10.770484 44.185863
v 117.082146 33.38546 42.61442
v 107.565414 42.177986 38.07404
v 84.63823 63.809868 19.829836
v 18.165876 94.732346 -2.899179
v 82.41643 -74.83947 32.97056
v 110.32753 -44.129883 62.857246
v 125.21838 8.753839 60.046394
v 121.30519 22.681131 46.496216
v 111.696205 34.28166 52.7717
v 92.34124 57.29714 44.75252
v 83.20343 64.28243 38.7984
v 64.869995 73.0093 30.46222
v 48.704277 -76.48261 19.447931
v 97.90738 -62.390778 53.81382
v 114.99736 -34.507973 66.84859
v 121.84828 7.358833 70.20738
v 118.131676 24.05218 68.20335
v 106.190445 41.512417 62.33802
v 92.50151 56.40127 52.74996
v 49.671207 83.40476 27.418045
v 5.406466 -84.82784 5.129517
v 72.735 -71.77234 47.291626
v 88.542725 -69.58159 47.33904
v 105.227425 -34.42048 73.68103
v 105.56693 -17.071323 72.803314
v 108.58937 23.28227 76.08315
v 98.7125 43.78047 73.46437
v 86.967804 56.66647 60.863586
v 78.8531 64.588974 49.842506
v 61.46173 69.17626 40.348362
v 36.795975 88.74403 19.795496
v 32.471996 89.40568 13.655663
v 7.468812 95.80715 3.891709
v 22.152431 -79.714035 16.179937
v 36.204384 -78.08032 22.613886
v 40.994354 -74.72388 32.572395
v 85.51463 -62.069122 65.63048
v 95.56454 -53.851833 67.8253
v 101.572464 -44.676796 71.062996
v 87.52318 -10.791787 77.41969
v 95.31051 32.431225 79.63699
v 54.569736 78.55558 34.723328
v 11.715288 -81.80968 8.792007
v 63.931366 -71.14968 57.028397
v 70.33898 -67.99802 63.23243
v 70.51531 -0.22845 83.11502
v 74.167114 57.262756 72.14383
v 54.21194 70.52168 50.546566
v 41.28842 -73.252625 44.758163
v 47.878452 -69.75074 56.321014
v 71.62484 -58.397324 76.29273
v 84.2883 -29.449282 80.53966
v 68.08896 -15.678865 85.27968
v 73.66906 14.891926 85.16582
v 79.50275 30.884275 86.35658
v 83.3157 43.19994 84.92583
v 63.35264 63.96185 63.720963
v 49.59488 72.259445 59.55139
v 3.736364 -85.22727 6.474425
v 54.9223 -57.948463 76.79634
v 54.337715 -39.73495 94.642395
v 67.37943 -41.31684 88.32358
v 61.161774 -18.502163 87.95972
v 56.158493 56.900578 81.9792
v 43.999744 77.68979 50.229744
v 43.251953 82.51495 39.336685
v 27.7695 88.34304 30.352139
v 5.68928 95.79024 6.207757
v 10.222268 -84.061554 14.55085
v 20.48244 -82.09659 29.084888
v 29.752201 -79.04247 33.003353
v 31.251701 -73.91948 45.190147
v 47.71859 -18.625965 101.41465
v 56.09778 -16.674282 93.616516
v 60.34104 8.475288 93.196884
v 60.87412 21.126526 97.65176
v 59.205765 31.322897 99.325424
v 57.558563 41.036945 98.15453
v 31.604622 -67.1783 59.276447
v 45.454826 -40.39695 95.02895
v 33.566925 -14.547907 109.047844
v 50.19421 10.391001 107.64183
v 51.18587 21.35603 109.768456
v 49.276802 31.24257 105.67444
v 37.433804 72.02315 66.67617
v 20.883003 82.48478 50.937775
v 1.706264 -85.89589 7.354568
v 25.053701 -72.94262 49.781662
v 30.333641 -36.58007 97.05948
v 37.29332 49.67072 96.801865
v 36.598423 56.387753 88.994125
v 16.580786 79.936775 58.00108
v 16.403215 91.134834 25.058025
v 8.277695 94.75654 13.783237
v 7.810929 -83.36053 21.408293
v 30.778156 -55.208534 75.72775
v 31.22353 -26.913357 103.64734
v 41.551857 10.528658 114.6606
v 40.729324 20.734028 112.28946
v 40.22274 40.98803 102.74673
v 24.42215 54.478752 91.14473
v 26.595348 64.64776 77.82714
v 10.585878 75.85034 63.067383
v 3.221088 95.784256 7.779112
v 5.273485 -72.04523 58.81784
v 20.886368 -64.82278 62.791893
v 39.08967 -0.786254 112.95729
v 12.863422 60.490776 74.095474
v 8.148839 83.04414 44.111347
v 4.572567 -85.6785 13.340527
v 7.289768 -82.12305 37.388424
v 14.777027 -79.34451 44.31835
v 11.069916 -59.488617 75.6605
v 14.716946 -48.748405 83.96672
v 18.06315 -28.616043 101.615326
v 10.209148 10.935734 114.91214
v 15.039263 21.800694 113.95897
v 23.921698 47.65869 97.794876
v -0.386995 -86.38569 7.55517
v 5.607355 -42.79553 90.49928
v 3.079415 -13.087872 110.72951
v 3.37087 37.491615 106.09354
v 10.19761 51.38914 87.33619
v 0.696226 95.75215 8.370017
v -2.347719 -87.27457 18.969524
v -3.267691 -63.146774 72.781105
v -14.371644 -19.088196 106.96623
v 5.211031 0.030168 114.417915
v -4.936578 45.287937 97.733925
v -1.841993 55.075783 78.746185
v 1.129574 63.778694 69.25921
v 0.070694 78.73488 51.994987
v -1.491034 84.33496 39.962044
v 0.22588 91.04221 29.561237
v -2.187406 -86.40279 7.27796
v -1.583576 -86.22122 30.803741
v -5.045339 -82.13814 46.02465
v -8.455645 -50.224384 83.589134
v -28.805311 -22.847637 103.17448
v -12.550478 9.478622 111.92656
v -12.769848 49.674118 87.15538
v -12.906767 58.680935 76.15381
v -10.620202 82.13062 46.516174
v -6.353012 -74.53126 58.705147
v -17.981976 -36.258484 96.02832
v -14.657003 -8.7031 110.73864
v -22.688034 55.150818 84.28748
v -11.383532 76.1271 63.05536
v -15.731373 -82.71137 43.500713
v -22.592638 -66.879326 72.30704
v -29.249983 -53.530052 80.58267
v -18.822016 19.163006 109.71627
v -21.739426 28.584326 104.6375
v -17.931652 43.34852 96.14963
v -28.687069 64.178604 76.06525
v -18.430273 72.580765 68.647736
v -10.419546 90.86795 32.2379
v 0.496257 94.59479 17.849276
v -16.224052 -78.99842 52.389954
v -25.082752 -74.047966 66.922485
v -39.81512 -47.50711 87.06131
v -45.00183 -32.309788 97.06211
v -44.102627 -10.199057 106.215935
v -41.879707 5.277062 108.748886
v -35.932774 48.030514 87.45744
v -19.11734 83.276505 50.97382
v -2.218719 96.78169 8.238457
v -4.666748 -85.54206 5.893552
v -43.63195 -73.78355 70.562546
v -49.083527 -46.180428 88.84468
v -55.927727 21.05771 104.62776
v -55.635242 35.4118 93.302795
v -12.417322 -85.32967 25.494383
v -31.168459 -81.87122 48.27349
v -29.525488 -79.18544 60.573154
v -41.29255 -67.99599 76.57324
v -63.34471 -10.016962 100.821495
v -63.85006 1.934752 102.601395
v -49.157948 49.160847 82.19697
v -41.712494 64.386 70.69684
v -37.24187 82.08161 57.05009
v -26.601202 89.06781 40.241516
v -13.575091 95.96469 21.923992
v -11.877222 -87.26694 18.076014
v -45.842342 -76.40768 63.165207
v -63.302208 -58.184696 80.30793
v -69.720726 -25.058071 91.00213
v -79.4623 7.833369 93.75042
v -70.75002 21.387856 96.018364
v -70.02478 38.535427 85.44033
v -34.574615 86.94602 48.353825
v -4.843336 97.48717 7.045866
v -6.840171 -87.2845 12.776297
v -37.57273 -81.65214 42.537476
v -46.61785 -82.30217 52.426353
v -64.4457 -76.67317 65.425575
v -68.638084 -69.00491 70.86009
v -87.150604 -3.390785 89.97035
v -89.59975 11.08597 89.599754
v -80.11829 36.993263 80.1566
v -68.95413 46.759888 77.23895
v -45.485962 79.98298 52.099884
v -6.244656 -85.03818 4.17692
v -29.159288 -84.92876 33.654
v -56.2461 -85.47268 46.634476
v -71.880295 -75.48911 62.10816
v -74.7431 -61.426483 72.41136
v -81.01863 -40.934315 78.40487
v -105.42209 -0.790971 75.984695
v -98.750015 0 82.86111
v -98.5036 11.249929 82.65434
v -88.97632 20.805204 86.40379
v -83.07998 42.404594 69.739655
v -66.89654 60.48483 58.206734
v -43.765965 -87.25682 36.21096
v -105.74347 -35.621563 60.139904
v -61.450638 68.92665 46.83818
v -51.045517 80.70949 39.5551
v -22.776855 92.11658 25.26352
v -11.594096 98.50808 13.246271
v -20.505085 -88.77458 17.25108
v -60.35702 -86.0398 39.939934
v -74.828476 -77.45116 50.62723
v -87.48244 -65.44361 51.322205
v -106.673386 -19.95066 68.99295
v -109.66414 11.318779 65.80699
v -104.903046 21.289064 62.032112
v -95.15936 30.055744 61.79255
v -91.33816 45.268753 51.049313
v -38.770588 85.6569 29.682856
v -52.995487 -88.61251 32.83487
v -116.24875 -0.432383 62.35324
v -81.01773 56.68464 49.107635
v -67.765816 72.8337 31.679897
v -6.955868 97.65349 5.077484
v -7.319582 -85.240166 1.631506
v -81.89833 -76.15975 31.417042
v -95.753136 -62.76107 33.144203
v -100.4662 -48.04367 54.366142
v -114.56013 -32.07314 50.899025
v -119.88339 -24.191916 48.134342
v -119.522644 -12.277287 53.077446
v -120.43781 10.225972 43.645348
v -111.04088 20.74722 46.42856
v -103.07037 28.928936 44.76341
v -96.50078 45.85816 39.925964
v -81.31591 61.954338 32.0555
v -55.941883 78.02338 27.717478
v -43.85678 81.92676 16.406284
v -21.628624 -88.4142 7.602402
v -43.017803 -89.667366 19.773844
v -66.51994 -86.41206 20.51796
v -83.17623 -78.9382 22.397655
v -125.33292 -21.442638 25.42793
v -125.677864 -8.336137 32.99447
v -108.802025 36.731163 29.092907
v -78.70498 70.24095 23.288017
v -71.24106 74.78242 22.907806
v -30.067194 90.23449 10.881002
v -37.050434 -91.48281 6.705976
v -72.963455 -87.06308 7.88989
v -96.439674 -69.69011 18.353197
v -107.58081 -53.744247 16.61921
v -117.98483 -34.69448 12.419352
v -130.89276 0 23.07993
v -129.82146 13.35033 24.484282
v -125.77064 23.461485 26.809677
v -103.47711 52.19044 19.06229
v -83.83343 69.23713 14.947189
v -46.04753 81.31676 8.624603
v -21.586647 95.21897 10.155495
v -15.77162 97.84745 6.365707
v -53.680473 -91.03148 7.582329
v -81.79071 -82.418564 10.405723
v -96.74368 -69.12726 5.773435
v -126.46449 -22.11072 11.051656
v -132.42468 1.942223 11.167093
v -114.01763 42.18944 10.443104
v -53.925213 78.91127 2.144993
v -8.413507 97.96927 1.847919
v -7.157384 -83.30955 -1.701316
v -82.12609 -80.83546 2.328428
v -105.24162 -58.303024 2.137413
v -124.63489 -23.323689 -0.245269
v -127.77136 3.689547 -1.896638
v -128.04819 22.419964 11.170214
v -108.57457 48.479492 8.432739
v -83.386734 70.09026 3.40046
v -75.843 74.60601 7.867613
v -33.785282 -89.89238 1.2261
v -96.011284 -69.82064 -8.435756
v -109.37254 -46.264175 -8.251192
v -119.61708 -24.020866 -11.422464
v -123.32152 -5.999113 -10.862117
v -117.06913 38.91956 -1.657291
v -98.18343 56.10932 7.446363
v -33.57332 91.523964 -2.739083
v -73.56081 -88.519424 -7.303579
v -83.39596 -84.87135 -14.418221
v -106.999725 -40.67429 -18.35222
v -116.26103 -10.32843 -20.499958
v -110.27886 40.11046 -15.599475
v -101.61467 47.938038 -13.728458
v -57.18519 77.883194 -1.209698
v -8.502571 97.281944 -0.714162
v -44.22144 -93.35913 -5.469437
v -53.442474 -94.03538 -4.276677
v -73.2421 -90.36567 -19.62516
v -92.2505 -75.30754 -17.072224
v -102.37451 -59.312508 -12.947188
v -100.27106 -38.977524 -39.045223
v -115.52351 -20.570465 -20.356407
v -114.44499 -2.301609 -32.378403
v -121.071175 20.80627 -18.277412
v -99.23789 42.541878 -28.19929
v -77.954666 66.98069 -20.100903
v -25.634499 95.66868 -0.52013
v -19.692833 96.60798 -1.474389
v -22.980099 -84.64046 -4.628326
v -69.024 -91.09534 -25.732126
v -79.727905 -85.758224 -26.420696
v -121.39222 10.452672 -23.260872
v -113.81875 30.259949 -25.088274
v -89.15969 48.894238 -40.410034
v -91.50718 54.978058 -23.322231
v -72.92552 75.311424 -9.75206
v -46.210064 82.59507 -9.707801
v -17.34056 -83.891495 -3.339623
v -86.56158 -58.624435 -47.37136
v -96.25757 -57.126255 -39.2846
v -108.14663 -18.284271 -41.853416
v -105.0581 0.728066 -53.96053
v -62.66021 79.452126 -20.941574
v -31.176989 93.705444 -14.166965
v -7.889273 96.934875 -3.203687
v -5.925608 -82.33641 -4.127487
v -38.121716 -93.71796 -21.204731
v -53.684616 -92.87401 -27.5404
v -84.09146 -77.51545 -33.473892
v -101.48332 33.83464 -52.81704
v -77.891 59.44092 -41.47209
v -71.50864 67.677124 -35.794224
v -44.57752 85.60047 -22.631395
v -48.833355 -95.21378 -25.74097
v -62.67254 -85.291664 -38.427605
v -81.25675 -66.763985 -46.786552
v -87.56504 -32.87023 -60.550682
v -96.66835 0.317171 -66.92327
v -107.414406 21.992344 -52.909218
v -55.77744 78.705894 -35.18371
v -53.591797 -80.18696 -52.60368
v -72.098495 -74.68031 -51.61032
v -68.94419 -58.073967 -68.17429
v -78.01599 -48.252617 -62.36788
v -83.76823 -18.506659 -69.08891
v -94.60224 -15.87294 -60.438976
v -87.93973 37.034706 -69.953705
v -79.60512 51.761204 -59.676476
v -62.786476 62.81212 -62.41947
v -43.14386 85.94491 -29.704632
v -6.776757 96.95883 -5.126824
v -4.331318 -81.69249 -5.726289
v -39.11592 -93.614105 -37.54665
v -76.6188 -33.401768 -70.13606
v -77.835075 -14.553307 -79.571655
v -86.00816 4.585156 -80.93985
v -90.01908 20.771156 -76.11002
v -61.686306 69.91693 -47.562515
v -43.791847 80.30734 -42.30372
v -27.964651 93.73065 -21.298683
v -22.058916 96.44623 -14.925179
v -40.102962 -82.59425 -55.614265
v -67.962654 -25.563782 -84.190056
v -71.86815 -9.749261 -86.90224
v -75.89084 15.867865 -90.75664
v -74.48064 39.451694 -80.79734
v -63.286022 56.80255 -71.27822
v -40.22526 76.629616 -57.436813
v -31.29307 87.29915 -35.086845
v -11.369387 -82.76083 -9.33691
v -29.841757 -93.62659 -32.27327
v -50.19419 -70.54908 -69.22637
v -53.76036 -59.520294 -78.73443
v -53.237686 -53.246952 -84.81331
v -64.029755 -41.049553 -77.31238
v -74.2782 29.910145 -87.704895
v -56.817123 51.778717 -79.33887
v -17.826872 -84.52608 -14.696831
v -19.46648 -88.346596 -26.198671
v -30.479118 -90.63579 -44.381832
v -45.97225 -57.352135 -83.71227
v -57.144203 -30.045635 -92.89188
v -59.489117 -9.673446 -96.33912
v -49.892815 9.42287 -106.7086
v -62.907772 11.28469 -97.7232
v -57.60613 30.871029 -99.77673
v -56.339306 40.25515 -95.950935
v -48.685753 48.04234 -86.58884
v -19.406528 93.37718 -33.071064
v -5.235545 97.81426 -6.814728
v -1.731766 -81.466 -6.965587
v -28.563416 -72.330696 -69.01923
v -48.061516 -1.762374 -108.175896
v -53.256565 20.449978 -104.49016
v -45.634552 39.301712 -97.86361
v -41.167976 66.7194 -71.32587
v -29.599453 83.20697 -46.99341
v -13.770321 97.151146 -22.013199
v -2.296433 97.92721 -8.316807
v -21.790192 -83.139915 -54.88964
v -43.189217 -38.082024 -99.91182
v -42.303856 -15.721628 -108.41537
v -32.8274 19.31507 -111.26213
v -44.975006 29.854416 -104.79455
v -39.05562 45.326656 -89.90271
v -38.62167 54.8934 -85.256355
v -17.169706 89.085915 -42.156902
v -12.826174 -86.58112 -37.51312
v -15.563377 -84.800934 -47.25342
v -21.597795 -68.80261 -80.96299
v -30.919205 -50.225998 -98.582214
v -30.42408 -24.905062 -110.07985
v -35.044407 38.267925 -102.655045
v -24.217403 69.27697 -74.61871
v -8.836879 -85.83489 -30.66806
v -15.359913 -76.05984 -64.92988
v -17.233418 -55.00659 -97.77997
v -18.876911 -34.53005 -110.0762
v -22.024687 -0.31933 -117.93434
v -27.733643 9.475855 -115.1376
v -23.26329 52.34379 -94.83208
v -19.357592 61.10264 -87.161255
v -19.026596 79.84088 -58.279465
v -6.931059 94.01424 -29.458195
v -5.540353 -84.69753 -38.58696
v -17.706846 -20.178192 -111.930405
v -1.101226 -0.352825 -118.47644
v -12.064587 75.937256 -64.577644
v -2.482306 83.58496 -57.83059
v 0.251326 -81.71597 -7.152373
v -5.098916 -79.37032 -51.628494
v -11.048083 -69.39361 -81.30027
v 4.117965 -58.172127 -92.261665
v -0.929952 -37.7972 -108.170944
v 0.980816 14.867348 -118.101494
v -1.736809 52.630943 -98.967896
v -8.596897 66.88362 -83.186615
v 4.964171 84.451004 -58.581505
v -5.639113 87.85608 -50.413685
v -6.218801 90.91626 -41.477257
v -5.285067 -81.60443 -14.422317
v -0.387389 -84.34955 -23.509453
v 2.693971 -72.76158 -70.14615
v -3.716595 29.26135 -114.37627
v -8.034302 40.0522 -108.77196
v 6.50005 78.63144 -68.93617
v -3.155477 96.76062 -16.403267
v 2.602485 -82.08066 -6.749091
v 12.830158 -61.111977 -85.02841
v 3.854131 -14.823483 -114.39933
v 4.949672 64.55229 -86.47946
v 2.397693 90.51704 -30.470598
v -0.123218 -84.634674 -30.371937
v 7.314754 -78.85965 -39.605835
v 15.486273 -66.66926 -77.15451
v 29.374828 -20.549147 -108.93852
v 22.534151 1.305824 -114.345245
v 24.725416 37.761414 -110.82519
v 22.018072 50.320007 -100.49123
v 17.175188 70.51861 -75.40109
v 12.464601 81.66244 -61.98812
v 9.093998 87.611046 -40.60736
v 1.088935 96.42668 -8.406476
v 6.455612 -83.07858 -20.289635
v 19.859049 -69.70336 -54.63887
v 26.347876 -35.894646 -101.33815
v 42.925484 1.278506 -108.25908
v 25.567799 21.580069 -115.2116
v 12.630586 -74.52588 -51.66443
v 26.919615 -64.95393 -71.81225
v 23.310524 -55.326046 -87.45453
v 41.06663 -28.566261 -100.63585
v 47.196156 -12.796972 -100.58837
v 43.174103 39.39961 -102.15628
v 42.45789 51.26207 -93.734436
v 27.30467 65.08546 -82.50817
v 19.082506 82.61336 -51.254974
v 24.128181 -75.337746 -42.983124
v 41.23276 -56.52016 -74.89393
v 25.240604 71.96897 -64.76574
v 4.862567 -82.37588 -5.36565
v 42.65419 -65.68078 -62.272358
v 48.840836 -41.062584 -88.3397
v 58.30216 -36.399742 -86.45321
v 61.36862 20.367023 -101.13252
v 58.03822 38.011482 -92.88167
v 38.830097 62.26498 -81.58798
v 42.889946 74.59729 -48.728058
v 20.083248 86.83021 -38.31223
v 6.632727 94.240616 -15.162249
v 7.853243 -82.3414 -13.527725
v 15.68696 -79.09058 -30.780966
v 29.860985 -74.42947 -37.630962
v 35.384743 -70.86821 -46.524124
v 61.588005 -18.16683 -93.28912
v 60.759987 -0.780173 -99.58992
v 65.241554 9.84449 -98.930016
v 58.194435 49.30923 -83.71309
v 4.233163 95.91046 -7.320172
v 14.551807 -80.28705 -15.727329
v 42.09396 -70.94491 -42.09396
v 49.305172 -70.617 -50.423626
v 57.99504 -67.04724 -56.193275
v 83.36768 20.952225 -83.61424
v 35.74956 80.24591 -44.13736
v 47.622112 -73.73683 -37.444904
v 65.32353 -54.360733 -68.183
v 72.874954 -47.691376 -69.15397
v 80.45712 -37.72975 -70.8788
v 88.10347 0.262712 -81.53223
v 87.82889 10.005104 -82.389175
v 76.999664 36.615433 -81.58435
v 74.061195 53.56501 -64.139595
v 59.92352 65.22885 -58.699036
v 29.590147 87.65229 -27.752295
v 6.401476 -82.26988 -3.375209
v 32.477955 -77.72015 -22.826603
v 79.224594 -56.858807 -56.13884
v 86.80646 -10.318527 -80.16045
v 75.43646 59.035206 -51.97133
v 50.946804 75.0839 -36.689
v 52.389103 -77.42309 -29.4604
v 61.171146 -74.001816 -40.35629
v 67.39417 -69.426315 -48.360348
v 88.28381 -48.695404 -56.947308
v 105.3089 0.413677 -63.19629
v 101.10668 23.071348 -65.05486
v 98.34174 38.97172 -58.705868
v 88.69238 48.70994 -56.039986
v 65.1416 67.52436 -43.293232
v 6.694971 96.03194 -5.13955
v 48.707676 -78.03214 -20.400604
v 66.1465 -75.9404 -31.063156
v 77.22075 -71.49437 -36.00863
v 87.33774 -62.06297 -41.688454
v 104.86253 -23.300962 -52.393173
v 106.92712 -10.203843 -58.33681
v 112.4299 8.182682 -53.274807
v 109.161835 27.925617 -48.10063
v 49.102882 80.10547 -27.8218
v 38.33793 87.05011 -17.702559
v 13.463363 94.37768 -11.69154
v 109.16516 -41.901623 -41.505207
v 114.16618 -21.716412 -41.85228
v 116.58632 -8.778743 -41.811348
v 116.029144 11.603376 -42.61156
v 94.04819 52.75315 -36.785675
v 65.61391 74.30131 -19.635056
v 7.222995 -82.93774 -0.934284
v 12.609079 -80.15622 -5.672737
v 57.147095 -79.23058 -14.423951
v 73.64214 -78.272224 -26.15136
v 84.42974 -74.024086 -30.214329
v 100.5373 -61.287914 -31.99006
v 109.6638 -49.8189 -32.839016
v 115.63054 -42.796978 -30.622635
v 118.00865 7.929725 -25.22151
v 106.02962 40.7485 -35.440205
v 84.45613 62.01546 -27.95768
v 52.121452 82.16652 -16.38287
v 43.14158 -79.33015 -10.156852
v 107.268845 -63.474754 -18.544752
v 118.60215 -42.907738 -20.88539
v 119.805176 -17.67503 -32.123264
v 113.02843 30.593527 -26.922674
v 98.252754 51.3188 -24.74365
v 47.46734 82.248085 -6.62113
v 8.033726 96.01584 -2.586305
v 36.74794 -79.74748 -0.704292
v 88.68957 -75.68216 -13.120651
v 113.45024 -54.857697 -19.727057
v 120.299034 -40.076443 -10.587
v 120.06379 12.876211 -9.376431
v 113.61748 33.534683 -9.956367
v 99.48924 51.387123 -8.361109
v 66.63067 74.82579 -6.590939
v 39.599777 86.99536 -6.506583
# 630 vertices

s 1
f 431 423 494
f 424 432 461
f 413 442 451
f 423 405 494
f 424 461 433
f 427 435 428
f 435 455 416
f 415 434 425
f 425 434 426
f 422 442 413
f 429 440 419
f 419 430 420
f 416 436 417
f 417 438 418
f 419 440 430
f 412 450 422
f 422 450 442
f 420 449 421
f 421 450 412
f 468 431 494
f 461 432 468
f 494 405 444
f 432 431 468
f 461 462 433
f 433 453 445
f 415 445 434
f 433 462 453
f 433 445 415
f 441 449 430
f 417 437 438
f 438 447 418
f 455 436 416
f 436 437 417
f 418 439 429
f 440 441 430
f 430 449 420
f 418 447 439
f 429 439 440
f 400 420 401
f 419 420 400
f 410 429 400
f 429 419 400
f 401 420 402
f 451 404 414
f 451 443 404
f 412 422 403
f 422 413 403
f 408 409 399
f 424 431 432
f 394 425 395
f 412 403 393
f 423 379 405
f 395 426 396
f 407 408 398
f 398 408 399
f 395 425 426
f 397 396 407
f 410 418 429
f 402 421 411
f 409 417 418
f 409 418 410
f 420 421 402
f 394 415 425
f 428 435 416
f 411 421 412
f 413 451 414
f 408 417 409
f 406 415 394
f 426 427 396
f 424 433 406
f 406 433 415
f 396 427 428
f 407 416 408
f 416 417 408
f 396 428 407
f 407 428 416
f 460 492 493
f 460 493 477
f 467 481 476
f 476 492 460
f 468 494 495
f 461 478 484
f 462 484 469
f 468 478 461
f 461 484 462
f 459 474 475
f 455 472 446
f 455 465 472
f 471 465 454
f 454 465 455
f 446 473 456
f 466 474 458
f 458 474 459
f 446 472 473
f 456 466 457
f 468 506 478
f 484 496 469
f 467 490 481
f 468 495 506
f 469 496 485
f 479 480 472
f 472 488 473
f 485 486 470
f 470 487 471
f 475 490 467
f 463 485 470
f 464 470 471
f 469 485 463
f 463 470 464
f 471 479 465
f 473 498 456
f 466 498 474
f 465 479 472
f 456 498 466
f 448 458 440
f 458 459 441
f 457 448 439
f 440 458 441
f 441 459 449
f 451 452 443
f 446 456 437
f 467 421 449
f 450 460 442
f 439 448 440
f 464 454 427
f 427 454 435
f 426 464 427
f 426 434 464
f 454 455 435
f 438 437 447
f 447 457 439
f 455 446 436
f 436 446 437
f 477 500 451
f 453 462 469
f 442 477 451
f 451 500 452
f 453 469 445
f 463 464 445
f 464 471 454
f 445 469 463
f 445 464 434
f 460 477 442
f 457 466 448
f 466 458 448
f 437 456 447
f 456 457 447
f 459 475 449
f 421 476 450
f 476 460 450
f 449 475 467
f 467 476 421
f 411 412 393
f 322 370 340
f 350 351 341
f 359 369 331
f 347 370 322
f 341 364 342
f 353 354 343
f 355 356 344
f 351 364 341
f 364 352 342
f 339 359 331
f 336 355 344
f 337 365 328
f 336 343 355
f 336 344 337
f 365 357 328
f 346 368 339
f 368 359 339
f 357 366 338
f 366 345 338
f 387 350 349
f 387 349 380
f 361 378 348
f 380 349 362
f 387 363 350
f 364 382 352
f 352 373 353
f 350 363 351
f 351 363 364
f 340 377 360
f 366 358 345
f 345 358 346
f 344 356 337
f 337 356 365
f 358 368 346
f 347 386 370
f 370 377 340
f 369 386 347
f 369 376 386
f 332 347 322
f 313 322 340
f 329 338 321
f 321 338 330
f 348 323 361
f 342 334 325
f 325 334 318
f 333 371 362
f 341 342 325
f 328 329 320
f 341 325 304
f 317 325 318
f 350 341 316
f 304 325 317
f 306 326 327
f 319 328 320
f 319 327 328
f 306 327 307
f 307 327 319
f 331 369 332
f 332 369 347
f 345 346 338
f 346 339 330
f 349 333 362
f 353 343 335
f 335 343 336
f 342 352 334
f 352 353 334
f 338 346 330
f 326 353 335
f 326 335 327
f 318 353 326
f 334 353 318
f 327 335 336
f 328 357 329
f 357 338 329
f 327 336 337
f 327 337 328
f 372 397 390
f 390 398 399
f 382 395 389
f 372 389 397
f 399 391 375
f 383 401 384
f 384 411 385
f 392 400 383
f 383 400 401
f 388 395 382
f 391 392 375
f 367 383 384
f 374 390 399
f 374 399 375
f 385 393 376
f 387 394 381
f 381 394 388
f 393 403 376
f 414 404 378
f 390 407 398
f 399 409 391
f 389 396 397
f 397 407 390
f 391 410 392
f 401 402 384
f 384 402 411
f 391 409 410
f 410 400 392
f 395 396 389
f 386 413 377
f 377 413 414
f 385 411 393
f 386 403 413
f 424 380 431
f 387 406 394
f 388 394 395
f 387 380 406
f 424 406 380
f 360 378 361
f 360 414 378
f 368 384 359
f 377 414 360
f 431 362 371
f 364 363 382
f 382 372 373
f 380 362 431
f 387 381 363
f 367 368 358
f 343 374 355
f 343 354 374
f 352 382 373
f 353 373 354
f 355 374 356
f 392 366 357
f 366 367 358
f 356 374 365
f 365 392 357
f 431 371 423
f 381 388 363
f 371 324 423
f 423 324 379
f 363 388 382
f 373 372 390
f 354 390 374
f 382 389 372
f 373 390 354
f 370 386 377
f 392 383 366
f 366 383 367
f 374 375 365
f 375 392 365
f 367 384 368
f 385 376 369
f 376 403 386
f 384 385 359
f 359 385 369
f 472 480 488
f 590 591 579
f 579 592 580
f 608 596 578
f 596 589 578
f 579 591 592
f 581 600 582
f 611 600 581
f 580 592 581
f 592 611 581
f 588 608 578
f 614 585 603
f 603 585 575
f 593 594 568
f 568 594 595
f 585 586 575
f 586 587 576
f 587 588 577
f 575 586 576
f 576 587 577
f 596 597 589
f 589 598 590
f 606 607 588
f 607 608 588
f 597 598 589
f 591 599 592
f 593 601 613
f 590 598 591
f 598 599 591
f 587 606 588
f 573 601 583
f 612 601 573
f 582 612 573
f 582 600 612
f 601 593 583
f 586 606 587
f 605 606 586
f 595 621 584
f 585 605 586
f 593 568 558
f 534 569 603
f 541 593 558
f 574 593 541
f 553 603 570
f 560 578 561
f 571 578 560
f 577 571 556
f 556 571 560
f 583 574 567
f 559 576 554
f 555 577 556
f 546 559 554
f 576 555 554
f 576 577 555
f 565 581 566
f 567 574 541
f 564 580 557
f 557 580 565
f 575 576 559
f 577 588 571
f 603 575 570
f 575 559 570
f 588 578 571
f 590 579 572
f 574 583 593
f 578 589 572
f 589 590 572
f 573 583 567
f 572 579 563
f 563 579 564
f 561 578 562
f 578 572 562
f 564 579 580
f 566 582 573
f 566 573 567
f 580 581 565
f 581 582 566
f 618 626 627
f 627 628 619
f 6 626 610
f 610 626 618
f 628 8 619
f 1 2 602
f 35 622 2
f 601 629 620
f 47 32 621
f 5 6 617
f 622 614 2
f 12 614 3
f 620 630 613
f 613 630 47
f 623 17 615
f 616 5 617
f 625 5 616
f 17 624 615
f 624 625 616
f 8 9 629
f 629 9 10
f 626 7 627
f 627 7 628
f 629 10 620
f 630 30 31
f 630 31 47
f 620 30 630
f 620 10 30
f 626 15 7
f 12 13 623
f 13 17 623
f 622 11 614
f 3 614 11
f 17 14 624
f 4 5 625
f 6 15 626
f 624 4 625
f 14 4 624
f 598 610 599
f 610 618 599
f 597 617 598
f 617 610 598
f 599 618 592
f 619 612 600
f 594 613 47
f 618 611 592
f 611 619 600
f 609 617 597
f 595 47 621
f 602 603 569
f 593 613 594
f 594 47 595
f 603 2 614
f 608 609 596
f 596 609 597
f 604 585 614
f 605 585 604
f 617 6 610
f 618 627 611
f 624 616 608
f 616 617 609
f 627 619 611
f 8 629 612
f 601 620 613
f 619 8 612
f 612 629 601
f 608 616 609
f 12 605 604
f 605 623 606
f 602 2 603
f 12 604 614
f 12 623 605
f 607 624 608
f 615 624 607
f 623 615 606
f 606 615 607
f 570 559 546
f 504 513 499
f 513 514 499
f 497 511 498
f 498 511 512
f 499 514 491
f 543 516 500
f 508 524 502
f 514 515 491
f 505 543 500
f 488 521 511
f 484 522 496
f 496 522 523
f 495 517 506
f 507 522 484
f 496 523 508
f 487 509 503
f 488 511 497
f 486 502 519
f 519 509 487
f 509 520 510
f 510 520 521
f 519 525 509
f 509 525 520
f 521 527 511
f 512 540 529
f 529 533 513
f 511 528 512
f 527 528 511
f 524 536 519
f 512 529 504
f 504 529 513
f 524 519 502
f 509 510 503
f 517 545 506
f 508 532 524
f 508 523 532
f 506 545 507
f 522 518 523
f 471 503 479
f 471 487 503
f 478 506 484
f 486 487 470
f 479 503 480
f 481 491 482
f 481 499 491
f 490 499 481
f 504 499 490
f 494 444 483
f 498 489 474
f 474 489 475
f 488 497 473
f 473 497 498
f 475 489 490
f 493 505 477
f 505 500 477
f 481 482 476
f 476 482 492
f 482 515 492
f 482 491 515
f 489 504 490
f 512 504 489
f 492 515 493
f 517 483 501
f 495 494 517
f 515 505 493
f 517 494 483
f 498 512 489
f 496 508 485
f 485 502 486
f 500 516 452
f 506 507 484
f 485 508 502
f 480 521 488
f 510 521 480
f 487 486 519
f 503 510 480
f 562 548 537
f 550 557 538
f 536 562 537
f 561 562 536
f 538 565 539
f 551 567 540
f 566 567 551
f 557 565 538
f 539 565 551
f 560 561 536
f 535 560 532
f 560 536 532
f 545 546 531
f 531 546 547
f 551 540 528
f 555 556 535
f 556 560 535
f 533 541 558
f 547 555 535
f 549 564 550
f 563 564 549
f 548 563 549
f 572 563 548
f 550 564 557
f 543 595 584
f 534 603 553
f 565 566 551
f 543 584 552
f 562 572 548
f 568 595 542
f 542 595 543
f 540 567 541
f 558 568 542
f 534 553 544
f 546 554 547
f 547 554 555
f 553 570 545
f 545 570 546
f 520 538 521
f 550 538 520
f 536 525 519
f 525 526 520
f 521 538 527
f 522 531 547
f 547 535 518
f 512 528 540
f 530 542 515
f 522 547 518
f 514 530 515
f 515 543 505
f 513 533 514
f 533 530 514
f 543 552 516
f 545 531 507
f 507 531 522
f 517 501 544
f 517 544 545
f 540 541 529
f 541 533 529
f 527 551 528
f 539 551 527
f 533 558 530
f 534 544 501
f 544 553 545
f 558 542 530
f 515 542 543
f 538 539 527
f 524 532 536
f 536 537 525
f 518 535 523
f 535 532 523
f 525 548 526
f 526 549 520
f 549 550 520
f 525 537 548
f 548 549 526
f 316 341 304
f 105 104 116
f 116 117 106
f 103 139 123
f 105 116 106
f 106 117 96
f 128 129 108
f 108 129 109
f 117 118 96
f 121 133 107
f 103 123 104
f 121 107 99
f 90 128 100
f 98 121 99
f 120 121 98
f 107 128 90
f 93 139 103
f 93 122 139
f 100 128 101
f 128 108 101
f 118 126 119
f 118 125 126
f 117 116 118
f 116 125 118
f 119 127 120
f 120 127 143
f 143 133 121
f 119 126 127
f 120 143 121
f 104 123 124
f 102 153 112
f 112 138 113
f 109 129 110
f 137 147 111
f 113 155 114
f 115 131 122
f 104 124 116
f 114 131 115
f 155 131 114
f 84 99 70
f 98 99 84
f 83 97 84
f 97 98 84
f 99 90 70
f 64 112 86
f 88 87 94
f 91 108 85
f 85 108 109
f 89 97 83
f 79 93 87
f 88 94 80
f 114 92 79
f 79 92 93
f 80 94 81
f 82 105 95
f 83 95 89
f 81 105 82
f 81 94 105
f 105 106 95
f 95 106 96
f 94 103 104
f 94 104 105
f 96 118 89
f 97 120 98
f 97 119 120
f 89 118 97
f 118 119 97
f 87 103 94
f 100 101 91
f 91 101 108
f 95 96 89
f 99 107 90
f 102 112 64
f 92 115 122
f 93 103 87
f 114 115 92
f 92 122 93
f 166 151 144
f 145 151 146
f 161 166 144
f 144 151 145
f 152 177 129
f 158 164 124
f 124 171 150
f 201 167 147
f 148 156 149
f 165 161 143
f 132 158 140
f 140 158 124
f 157 158 132
f 157 163 158
f 150 159 141
f 142 160 143
f 160 165 143
f 141 160 142
f 159 160 141
f 168 179 153
f 154 180 155
f 168 130 162
f 153 179 154
f 179 180 154
f 187 169 148
f 148 169 156
f 180 187 155
f 155 187 148
f 168 153 130
f 166 173 151
f 173 174 151
f 124 164 171
f 171 159 150
f 174 146 151
f 175 176 152
f 176 177 152
f 146 175 135
f 135 175 152
f 123 132 140
f 124 150 116
f 139 132 123
f 123 140 124
f 116 141 125
f 125 141 142
f 126 143 127
f 150 141 116
f 125 142 126
f 122 149 139
f 110 177 136
f 129 177 110
f 133 134 107
f 134 128 107
f 130 153 102
f 113 154 155
f 131 149 122
f 153 138 112
f 138 154 113
f 136 201 137
f 177 201 136
f 145 146 135
f 135 152 129
f 201 147 137
f 149 156 139
f 156 157 139
f 153 154 138
f 148 149 131
f 144 145 134
f 145 135 128
f 128 135 129
f 142 143 126
f 134 145 128
f 155 148 131
f 133 144 134
f 161 144 133
f 139 157 132
f 143 161 133
f 78 114 79
f 40 41 14
f 24 43 51
f 22 56 37
f 23 37 48
f 24 44 25
f 45 53 26
f 26 53 27
f 24 51 44
f 25 44 45
f 23 22 37
f 25 45 20
f 20 45 26
f 42 43 19
f 43 24 19
f 46 55 9
f 33 34 1
f 36 56 22
f 55 28 9
f 28 29 21
f 48 66 38
f 38 57 39
f 35 78 36
f 35 77 78
f 38 66 57
f 40 58 41
f 49 58 40
f 39 49 40
f 39 57 49
f 34 77 35
f 28 55 63
f 21 75 30
f 27 53 46
f 28 63 29
f 29 75 21
f 47 76 32
f 33 86 34
f 30 75 31
f 75 47 31
f 9 21 10
f 28 21 9
f 7 27 628
f 628 27 8
f 622 22 11
f 12 38 13
f 12 23 38
f 23 3 11
f 3 23 12
f 7 20 27
f 16 17 13
f 14 18 4
f 1 34 2
f 34 35 2
f 4 18 5
f 7 15 25
f 7 25 20
f 5 19 6
f 18 19 5
f 23 48 38
f 16 39 17
f 622 36 22
f 23 11 22
f 16 38 39
f 18 42 19
f 41 42 18
f 17 39 40
f 14 41 18
f 35 36 622
f 6 24 15
f 19 24 6
f 13 38 16
f 17 40 14
f 15 24 25
f 8 46 9
f 10 21 30
f 20 26 27
f 27 46 8
f 79 87 65
f 65 88 66
f 71 72 62
f 85 109 63
f 65 87 88
f 67 83 68
f 67 95 83
f 66 88 80
f 82 95 67
f 61 70 71
f 58 67 68
f 58 68 59
f 49 67 58
f 49 82 67
f 59 68 69
f 69 70 60
f 61 71 62
f 59 69 60
f 60 70 61
f 110 136 74
f 75 136 137
f 109 110 63
f 74 136 75
f 137 111 76
f 113 78 77
f 113 114 78
f 112 77 86
f 112 113 77
f 63 110 74
f 69 84 70
f 70 90 71
f 68 83 69
f 83 84 69
f 71 100 72
f 100 91 72
f 73 91 85
f 90 100 71
f 72 91 73
f 36 78 56
f 56 65 37
f 29 74 75
f 86 77 34
f 37 65 48
f 41 59 50
f 50 60 51
f 48 65 66
f 58 59 41
f 63 74 29
f 43 50 51
f 51 52 44
f 42 50 43
f 41 50 42
f 44 52 45
f 46 54 55
f 55 85 63
f 45 52 53
f 53 54 46
f 64 86 33
f 78 79 56
f 75 137 47
f 137 76 47
f 56 79 65
f 57 82 49
f 57 81 82
f 66 80 57
f 57 80 81
f 73 85 55
f 51 60 61
f 52 62 53
f 50 59 60
f 51 61 52
f 52 61 62
f 54 73 55
f 54 72 73
f 53 72 54
f 53 62 72
f 156 169 181
f 302 314 262
f 314 315 263
f 260 277 291
f 291 273 261
f 278 263 315
f 274 295 265
f 265 280 266
f 303 264 293
f 303 294 264
f 260 291 261
f 302 262 273
f 294 274 258
f 271 272 256
f 256 276 257
f 268 275 252
f 257 277 260
f 257 276 277
f 252 275 269
f 256 272 276
f 287 288 270
f 271 289 272
f 286 287 269
f 270 288 271
f 288 289 271
f 292 302 273
f 293 246 279
f 290 277 276
f 291 292 273
f 269 287 270
f 266 280 281
f 259 282 283
f 265 295 280
f 266 281 267
f 259 284 268
f 285 275 268
f 275 286 269
f 283 284 259
f 284 285 268
f 241 253 254
f 242 254 255
f 252 253 241
f 241 254 242
f 255 256 243
f 260 261 245
f 264 246 293
f 243 256 244
f 244 256 257
f 251 252 241
f 258 237 247
f 248 238 237
f 236 211 246
f 264 236 246
f 258 248 237
f 239 249 240
f 249 250 240
f 238 249 239
f 248 249 238
f 259 268 251
f 253 269 254
f 282 259 250
f 251 268 252
f 253 252 269
f 255 271 256
f 270 271 255
f 254 270 255
f 269 270 254
f 250 259 251
f 258 265 248
f 274 265 258
f 264 294 247
f 258 247 294
f 265 266 248
f 249 282 250
f 249 267 282
f 248 266 249
f 249 266 267
f 317 318 296
f 296 318 305
f 303 293 333
f 333 293 371
f 305 326 306
f 297 320 308
f 297 319 320
f 305 318 326
f 307 319 297
f 293 279 371
f 298 308 309
f 310 321 299
f 306 307 297
f 297 308 298
f 299 321 311
f 301 332 322
f 322 313 301
f 300 332 301
f 300 312 332
f 314 361 315
f 314 360 361
f 302 360 314
f 302 340 360
f 361 323 315
f 350 316 303
f 350 303 349
f 371 279 324
f 349 303 333
f 313 340 302
f 320 329 309
f 329 321 310
f 308 320 309
f 309 329 310
f 321 330 311
f 339 331 312
f 312 331 332
f 311 330 339
f 311 339 312
f 296 305 280
f 281 306 282
f 295 296 280
f 280 305 281
f 282 306 297
f 284 298 285
f 284 297 298
f 282 297 283
f 283 297 284
f 316 295 294
f 285 286 275
f 272 289 276
f 294 295 274
f 267 281 282
f 276 289 290
f 277 301 291
f 278 315 323
f 290 300 277
f 277 300 301
f 301 313 291
f 292 313 302
f 290 312 300
f 291 313 292
f 303 316 294
f 304 317 295
f 305 306 281
f 316 304 295
f 295 317 296
f 289 311 312
f 286 310 287
f 286 309 310
f 285 298 286
f 286 298 309
f 287 299 288
f 289 299 311
f 289 312 290
f 287 310 299
f 288 299 289
f 235 263 278
f 200 226 177
f 177 226 201
f 191 209 186
f 176 186 200
f 168 216 192
f 218 203 187
f 182 206 189
f 192 202 180
f 202 218 187
f 185 190 199
f 193 194 181
f 194 188 181
f 179 192 180
f 179 168 192
f 182 189 170
f 197 190 184
f 184 190 185
f 189 207 183
f 183 207 195
f 194 205 188
f 204 205 194
f 193 219 194
f 219 204 194
f 188 205 182
f 195 214 196
f 196 208 197
f 205 206 182
f 207 214 195
f 203 219 193
f 190 208 198
f 190 198 199
f 206 207 189
f 197 208 190
f 199 224 191
f 236 227 168
f 168 227 216
f 191 224 209
f 186 209 200
f 163 170 164
f 188 170 163
f 191 175 146
f 181 188 163
f 170 189 164
f 172 184 166
f 184 173 166
f 164 189 171
f 195 196 165
f 174 191 146
f 158 163 164
f 171 183 159
f 156 181 157
f 157 181 163
f 159 195 160
f 165 172 161
f 172 166 161
f 183 195 159
f 195 165 160
f 184 185 173
f 173 185 174
f 165 197 172
f 197 184 172
f 174 185 199
f 175 186 176
f 176 200 177
f 174 199 191
f 191 186 175
f 196 197 165
f 236 162 178
f 180 202 187
f 201 210 167
f 168 162 236
f 187 203 169
f 188 182 170
f 171 189 183
f 203 193 169
f 193 181 169
f 222 244 257
f 222 257 223
f 221 231 232
f 233 244 222
f 223 245 224
f 225 262 226
f 264 227 236
f 245 234 224
f 234 262 225
f 241 231 220
f 238 228 218
f 228 239 212
f 238 218 217
f 238 217 237
f 212 240 219
f 230 241 220
f 220 231 221
f 239 240 212
f 240 229 219
f 257 260 223
f 260 245 223
f 232 255 243
f 233 243 244
f 245 261 234
f 262 314 226
f 314 263 226
f 261 273 234
f 234 273 262
f 232 243 233
f 240 250 229
f 250 251 229
f 227 264 247
f 238 239 228
f 229 251 230
f 231 255 232
f 231 242 255
f 251 241 230
f 231 241 242
f 218 212 203
f 203 212 219
f 247 217 192
f 217 218 202
f 219 213 204
f 206 221 207
f 220 221 206
f 204 213 205
f 205 220 206
f 192 217 202
f 199 198 224
f 209 225 200
f 196 214 208
f 208 223 198
f 200 225 226
f 236 178 211
f 216 247 192
f 226 263 201
f 201 263 210
f 221 232 214
f 214 233 215
f 229 230 213
f 230 220 205
f 232 233 214
f 227 247 216
f 247 237 217
f 215 233 222
f 223 224 198
f 213 230 205
f 208 215 222
f 208 222 223
f 207 221 214
f 214 215 208
f 224 234 209
f 218 228 212
f 219 229 213
f 209 234 225
f 210 263 235
f 404 443 111 147
f 378 404 147 167
f 278 323 348 378
f 167 210 235 278
f 378 167 278
f 443 452 76 111
f 452 516 552 584
f 76 584 621 32
f 584 76 452
f 33 1 379 324
f 1 602 405 379
f 602 569 534 501
f 501 483 444 405
f 405 602 501
f 64 33 324 279
f 162 130 102 64
f 279 246 211 178
f 279 178 162 64
#1241 polygons

